<?xml version="1.0" encoding="UTF-8"?>
<svg id="_Слой_2" data-name="Слой 2" xmlns="http://www.w3.org/2000/svg" viewBox="0 0 167.12 84.02">
  <defs>
    <style>
      .cls-1 {
        fill: #fff;
      }
    </style>
  </defs>
  <g id="Layer_1" data-name="Layer 1">
    <g>
      <path class="cls-1" d="M25.02,16c-1.81,8.83-1.3,18.95-.28,27.65,0,0,.19,1.65.28,2.94.14,1.53-.51,3.18-1.91,3.18-1.49,0-2.05-1.65-1.91-3.18.09-1.29.28-2.94.28-2.94.98-8.71,1.49-18.83-.33-27.65C18.09.94,11.72,1.41,7.3,1.41H0v26.01c2.05,0,2.98,4.82,2.98,11.18,0,7.3-1.12,11.3-2.98,11.3v32.71h14.88v-32.71c0-15.65-2.28-22.48-5.67-22.48h-5.16v-3.88h6c4.23,0,6.19,14,6.19,26.36,0,10.94-.46,25.89,5.67,25.89h2.42c6.09,0,5.63-14.94,5.63-25.89,0-12.36,2-26.36,6.19-26.36h6v3.88h-5.16c-3.39,0-5.67,6.83-5.67,22.48v32.71h14.93v-32.71c-1.86,0-2.98-3.65-2.98-11.65,0-6,.88-10.83,2.98-10.83V1.41h-7.35c-4.42,0-10.79-.47-13.86,14.59Z"/>
      <path class="cls-1" d="M160.56,41.42c0-8.12,5.81-6.47,5.81-23.18,0-12.94-4-16.83-14.51-16.83h-18.51v34.6h5.12c4.74,0,7.49-6.94,7.49-17.3v-10.71h1.81v10.71c0,12.71-3.12,21.42-8.84,21.42-.31,0-.61.05-.91.14h-.31c-8.32,0-15.06,6.74-15.06,15.06v9.6c0,9.76,7.91,17.67,17.67,17.68,0,0,0,0,0,0h6.23v-32.71c-1.35,0-2.37-1.77-2.37-4.12,0-2.12,1.12-3.06,2.37-5.53h5.25c-.37,5.3-1.3,9.65-3.35,9.65v32.71h18.65v-32.71c-1.67,0-6.56-2.35-6.56-8.47ZM152.05,35.66h-3.77c.7-2.59,1.35-6.24,1.67-11.41h2.09c0,2.59.09,6.94,0,11.41Z"/>
      <path class="cls-1" d="M128.28,1.41h-17.21v24.12c0,18.59-3.3,21.65-4.51,33.89h-1.07c-4.7-15.77-1.4-32.01,3.21-32.01V1.41h-18v26.01c2.46,0,4.93,4.47,4.93,10.71,0,5.53-1.81,8.12-3.91,16.83-2.98,12.59-1.67,27.65,5.3,27.65h11.17v-9.65h.07c.08-8.66,1.23-18.14,4.99-23.06,5.07-6.47,15.02-6.35,15.02-32.24V1.41Z"/>
      <path class="cls-1" d="M68.23,0c-11.53,0-19.16,19.53-19.16,42.01,0,27.07,8.28,42.01,19.16,42.01s19.16-14.94,19.16-42.01c0-22.48-7.81-42.01-19.16-42.01ZM69.37,37.96c-1.81,6.52-1.3,13.99-.28,20.42,0,0,.19,1.22.28,2.17.14,1.13-.51,2.35-1.91,2.35-1.49,0-2.05-1.22-1.91-2.35.09-.96.28-2.17.28-2.17.98-6.43,1.49-13.9-.33-20.42-2.44-8.83-6.96-10.43-10.93-10.72,3.74-2.4,8.15-3.79,12.88-3.79s9.14,1.39,12.88,3.79c-3.98.28-8.52,1.85-10.97,10.72Z"/>
    </g>
  </g>
</svg>